<svg width="1425" height="171" viewBox="0 0 1425 171" fill="none" xmlns="http://www.w3.org/2000/svg">
<path d="M18.304 103.4C13.952 103.4 10.88 102.291 9.088 100.072C7.296 97.8533 6.4 95.208 6.4 92.136C6.4 89.064 7.296 86.4187 9.088 84.2C10.88 81.9813 13.952 80.872 18.304 80.872C22.656 80.872 25.728 81.9813 27.52 84.2C29.312 86.4187 30.208 89.064 30.208 92.136C30.208 95.208 29.312 97.8533 27.52 100.072C25.728 102.291 22.656 103.4 18.304 103.4ZM128.632 130.92L100.856 67.816H100.088L98.04 129L85.24 129.64L91.256 45.8L122.232 44.52L135.16 105.448L150.136 43.88L181.112 45.8L184.952 129L173.432 130.92L155.128 62.824H154.104L140.152 129L128.632 130.92ZM216.626 56.808C213.383 56.808 210.567 55.656 208.178 53.352C205.874 50.9627 204.722 48.1467 204.722 44.904C204.722 41.6613 205.874 38.888 208.178 36.584C210.567 34.1947 213.383 33 216.626 33C219.869 33 222.642 34.1947 224.946 36.584C227.335 38.888 228.53 41.6613 228.53 44.904C228.53 48.1467 227.335 50.9627 224.946 53.352C222.642 55.656 219.869 56.808 216.626 56.808ZM210.738 130.92L204.21 67.56L231.602 63.336L223.41 129.768L210.738 130.92ZM265.332 131.944C264.82 131.944 263.967 131.816 262.772 131.56C261.577 131.389 260.724 131.176 260.212 130.92C258.249 128.531 256.585 125.331 255.22 121.32C253.855 117.224 252.745 112.744 251.892 107.88C251.039 102.931 250.399 97.896 249.972 92.776C249.545 87.656 249.247 82.792 249.076 78.184C248.905 73.4907 248.82 69.4373 248.82 66.024L274.42 64.104C273.737 70.9307 273.183 76.9467 272.756 82.152C272.329 87.3573 272.116 92.3493 272.116 97.128C272.116 100.968 272.244 104.851 272.5 108.776C272.841 112.616 273.353 116.883 274.036 121.576C277.791 120.723 280.905 119.101 283.38 116.712C285.94 114.237 287.988 111.293 289.524 107.88C291.145 104.381 292.297 100.712 292.98 96.872C293.663 93.032 294.004 89.2773 294.004 85.608C294.004 84.9253 293.961 84.1147 293.876 83.176C293.876 82.152 293.748 80.488 293.492 78.184C293.321 75.7947 292.98 72.2533 292.468 67.56L319.86 63.336L311.668 129.768L298.996 130.92L296.436 106.6H295.54C292.127 115.645 287.903 122.131 282.868 126.056C277.833 129.981 271.988 131.944 265.332 131.944ZM346.155 131.944C345.643 131.944 345.088 131.944 344.491 131.944C343.979 131.944 343.467 131.901 342.955 131.816C340.054 129.853 337.707 126.952 335.915 123.112C334.208 119.187 333.355 115.133 333.355 110.952C333.355 107.453 334.166 104.552 335.787 102.248C337.408 99.944 340.31 98.2373 344.491 97.128C348.758 95.9333 354.731 95.336 362.411 95.336C364.288 95.336 366.294 95.4213 368.427 95.592C370.56 95.6773 372.822 95.8907 375.211 96.232L374.955 93.416C374.614 89.9173 372.95 87.1867 369.963 85.224C367.062 83.2613 363.606 82.28 359.595 82.28C357.376 82.28 355.03 82.6213 352.555 83.304C350.166 83.9867 347.776 85.0533 345.387 86.504L339.755 67.944C342.571 66.7493 346.155 65.7253 350.507 64.872C354.944 63.9333 359.51 63.464 364.203 63.464C370.432 63.464 375.851 64.36 380.459 66.152C385.152 67.944 388.779 70.76 391.339 74.6C393.984 78.3547 395.307 83.3467 395.307 89.576C395.307 90.344 395.264 91.24 395.179 92.264C395.179 93.288 395.136 94.0133 395.051 94.44L391.467 129.768L378.795 130.92L376.875 112.36H375.851C373.035 118.333 369.067 123.112 363.947 126.696C358.912 130.195 352.982 131.944 346.155 131.944ZM355.755 117.608C357.632 117.267 359.851 116.669 362.411 115.816C365.056 114.877 367.574 113.341 369.963 111.208C372.438 108.989 374.358 105.789 375.723 101.608C374.614 101.608 373.504 101.608 372.395 101.608C371.286 101.523 370.134 101.48 368.939 101.48C366.294 101.48 363.904 101.523 361.771 101.608C359.638 101.693 357.419 101.949 355.115 102.376C354.774 103.144 354.39 104.083 353.963 105.192C353.536 106.301 353.323 107.709 353.323 109.416C353.323 110.867 353.579 112.445 354.091 114.152C354.603 115.773 355.158 116.925 355.755 117.608ZM427.957 131.944C427.445 131.944 426.592 131.816 425.397 131.56C424.202 131.389 423.349 131.176 422.837 130.92C420.874 128.531 419.21 125.331 417.845 121.32C416.48 117.224 415.37 112.744 414.517 107.88C413.664 102.931 413.024 97.896 412.597 92.776C412.17 87.656 411.872 82.792 411.701 78.184C411.53 73.4907 411.445 69.4373 411.445 66.024L437.045 64.104C436.362 70.9307 435.808 76.9467 435.381 82.152C434.954 87.3573 434.741 92.3493 434.741 97.128C434.741 100.968 434.869 104.851 435.125 108.776C435.466 112.616 435.978 116.883 436.661 121.576C440.416 120.723 443.53 119.101 446.005 116.712C448.565 114.237 450.613 111.293 452.149 107.88C453.77 104.381 454.922 100.712 455.605 96.872C456.288 93.032 456.629 89.2773 456.629 85.608C456.629 84.9253 456.586 84.1147 456.501 83.176C456.501 82.152 456.373 80.488 456.117 78.184C455.946 75.7947 455.605 72.2533 455.093 67.56L482.485 63.336L474.293 129.768L461.621 130.92L459.061 106.6H458.165C454.752 115.645 450.528 122.131 445.493 126.056C440.458 129.981 434.613 131.944 427.957 131.944ZM568.787 132.072C562.131 132.072 556.243 131.475 551.123 130.28C546.003 129.085 541.736 127.165 538.323 124.52C537.555 121.107 537 118.035 536.659 115.304C536.403 112.488 536.275 109.843 536.275 107.368C536.275 99.7733 537.427 92.8187 539.731 86.504C542.12 80.1893 545.15 74.7707 548.819 70.248C552.488 65.64 556.286 62.2267 560.211 60.008C563.71 61.3733 567.251 63.0373 570.835 65C574.504 66.8773 577.875 69.096 580.947 71.656C584.019 74.216 586.494 77.1173 588.371 80.36C590.248 83.5173 591.187 87.016 591.187 90.856C591.187 94.8667 590.462 98.2373 589.011 100.968C587.646 103.613 585.128 105.619 581.459 106.984C577.79 108.349 572.499 109.032 565.587 109.032C562.686 109.032 559.87 108.904 557.139 108.648C554.494 108.392 552.19 108.051 550.227 107.624C548.606 111.635 547.795 115.816 547.795 120.168C549.758 120.424 551.891 120.637 554.195 120.808C556.499 120.893 558.718 120.936 560.851 120.936C564.862 120.936 568.958 120.637 573.139 120.04C577.406 119.357 581.672 118.248 585.939 116.712L589.779 129.128C586.366 130.237 582.867 131.005 579.283 131.432C575.699 131.859 572.2 132.072 568.787 132.072ZM558.163 101.736C561.406 101.736 564.648 101.565 567.891 101.224C571.219 100.883 574.12 100.456 576.595 99.944C576.851 98.2373 576.979 96.616 576.979 95.08C576.979 92.008 576.552 89.2773 575.699 86.888C574.931 84.4133 573.95 82.2373 572.755 80.36C567.976 83.5173 564.008 86.8453 560.851 90.344C557.779 93.8427 555.091 97.5973 552.787 101.608C553.64 101.693 554.536 101.736 555.475 101.736C556.414 101.736 557.31 101.736 558.163 101.736ZM613.098 130.92L606.57 67.432L633.962 63.208L631.402 83.688H632.298C635.541 76.6053 639.381 71.0587 643.818 67.048C648.341 62.952 653.205 60.6907 658.41 60.264L654.826 87.528C653.461 87.3573 652.138 87.2293 650.858 87.144C649.663 86.9733 648.469 86.888 647.274 86.888C643.605 86.888 640.447 87.6987 637.802 89.32C635.242 90.9413 633.109 93.8427 631.402 98.024C629.781 102.12 628.501 107.88 627.562 115.304L625.77 129.768L613.098 130.92ZM673.223 130.92L666.695 67.432L694.087 63.208L691.527 83.688H692.423C695.666 76.6053 699.506 71.0587 703.943 67.048C708.466 62.952 713.33 60.6907 718.535 60.264L714.951 87.528C713.586 87.3573 712.263 87.2293 710.983 87.144C709.788 86.9733 708.594 86.888 707.399 86.888C703.73 86.888 700.572 87.6987 697.927 89.32C695.367 90.9413 693.234 93.8427 691.527 98.024C689.906 102.12 688.626 107.88 687.687 115.304L685.895 129.768L673.223 130.92ZM752.548 132.072C746.489 132.072 741.327 131.347 737.06 129.896C732.879 128.531 729.465 126.781 726.82 124.648C726.137 121.235 725.625 117.949 725.284 114.792C725.028 111.549 724.9 108.435 724.9 105.448C724.9 99.4747 725.753 93.928 727.46 88.808C729.252 83.688 731.428 79.1653 733.988 75.24C736.633 71.2293 739.321 67.944 742.052 65.384C744.783 62.7387 747.087 60.9467 748.964 60.008C752.804 61.9707 756.601 64.36 760.356 67.176C764.111 69.992 767.524 73.2773 770.596 77.032C773.753 80.7867 776.271 85.0107 778.148 89.704C780.025 94.3973 780.964 99.6453 780.964 105.448C780.964 111.336 780.153 116.243 778.532 120.168C776.911 124.093 774.052 127.037 769.956 129C765.86 131.048 760.057 132.072 752.548 132.072ZM745.636 120.936C748.879 120.936 752.121 120.723 755.364 120.296C758.692 119.784 761.593 119.101 764.068 118.248C764.751 115.517 765.263 112.787 765.604 110.056C765.945 107.325 766.116 104.637 766.116 101.992C766.116 93.8853 764.409 86.4613 760.996 79.72C756.217 82.1947 751.993 85.6507 748.324 90.088C744.655 94.44 741.753 99.2613 739.62 104.552C737.572 109.757 736.548 114.963 736.548 120.168C739.279 120.68 742.308 120.936 745.636 120.936ZM802.223 130.92L795.695 67.432L823.087 63.208L820.527 83.688H821.423C824.666 76.6053 828.506 71.0587 832.943 67.048C837.466 62.952 842.33 60.6907 847.535 60.264L843.951 87.528C842.586 87.3573 841.263 87.2293 839.983 87.144C838.788 86.9733 837.594 86.888 836.399 86.888C832.73 86.888 829.572 87.6987 826.927 89.32C824.367 90.9413 822.234 93.8427 820.527 98.024C818.906 102.12 817.626 107.88 816.687 115.304L814.895 129.768L802.223 130.92ZM937.459 157.16C932.766 157.16 928.328 156.392 924.147 154.856C919.966 153.405 915.614 151.187 911.091 148.2L914.675 141.8C922.27 145.128 928.712 146.792 934.003 146.792C938.867 146.792 942.408 145.427 944.627 142.696C946.931 139.965 948.083 136.467 948.083 132.2C948.083 131.944 948.04 131.517 947.955 130.92C947.955 130.408 947.87 129.299 947.699 127.592C947.614 125.8 947.358 123.069 946.931 119.4C946.59 115.645 946.078 110.483 945.395 103.912H944.371C940.958 112.957 936.435 119.485 930.803 123.496C925.171 127.421 918.942 129.384 912.115 129.384C911.603 129.384 910.75 129.256 909.555 129C908.36 128.829 907.507 128.616 906.995 128.36C903.838 125.288 901.278 120.723 899.315 114.664C897.438 108.52 896.499 101.608 896.499 93.928C896.499 87.6133 897.31 82.3653 898.931 78.184C900.552 74.0027 903.283 70.8453 907.123 68.712C911.048 66.5787 916.382 65.512 923.123 65.512C926.622 65.512 929.907 65.9387 932.979 66.792C936.136 67.6453 939.038 68.9253 941.683 70.632L944.499 66.92L969.075 63.208L960.243 134.76C959.39 141.501 957 146.92 953.075 151.016C949.235 155.112 944.03 157.16 937.459 157.16ZM920.819 119.016C922.44 118.76 924.446 117.992 926.835 116.712C929.224 115.347 931.614 113.299 934.003 110.568C936.392 107.837 938.355 104.253 939.891 99.816C941.512 95.2933 942.323 89.7467 942.323 83.176C942.323 82.2373 942.28 81.3413 942.195 80.488C942.195 79.5493 942.152 78.568 942.067 77.544C940.19 76.0933 937.971 74.984 935.411 74.216C932.936 73.448 930.504 73.064 928.115 73.064C924.958 73.064 922.27 73.6613 920.051 74.856C919.624 76.9893 919.198 79.848 918.771 83.432C918.43 87.016 918.259 91.2827 918.259 96.232C918.259 98.8773 918.387 101.779 918.643 104.936C918.899 108.008 919.198 110.824 919.539 113.384C919.966 115.944 920.392 117.821 920.819 119.016ZM995.28 131.944C994.768 131.944 994.213 131.944 993.616 131.944C993.104 131.944 992.592 131.901 992.08 131.816C989.179 129.853 986.832 126.952 985.04 123.112C983.333 119.187 982.48 115.133 982.48 110.952C982.48 107.453 983.291 104.552 984.912 102.248C986.533 99.944 989.435 98.2373 993.616 97.128C997.883 95.9333 1003.86 95.336 1011.54 95.336C1013.41 95.336 1015.42 95.4213 1017.55 95.592C1019.69 95.6773 1021.95 95.8907 1024.34 96.232L1024.08 93.416C1023.74 89.9173 1022.07 87.1867 1019.09 85.224C1016.19 83.2613 1012.73 82.28 1008.72 82.28C1006.5 82.28 1004.15 82.6213 1001.68 83.304C999.291 83.9867 996.901 85.0533 994.512 86.504L988.88 67.944C991.696 66.7493 995.28 65.7253 999.632 64.872C1004.07 63.9333 1008.63 63.464 1013.33 63.464C1019.56 63.464 1024.98 64.36 1029.58 66.152C1034.28 67.944 1037.9 70.76 1040.46 74.6C1043.11 78.3547 1044.43 83.3467 1044.43 89.576C1044.43 90.344 1044.39 91.24 1044.3 92.264C1044.3 93.288 1044.26 94.0133 1044.18 94.44L1040.59 129.768L1027.92 130.92L1026 112.36H1024.98C1022.16 118.333 1018.19 123.112 1013.07 126.696C1008.04 130.195 1002.11 131.944 995.28 131.944ZM1004.88 117.608C1006.76 117.267 1008.98 116.669 1011.54 115.816C1014.18 114.877 1016.7 113.341 1019.09 111.208C1021.56 108.989 1023.48 105.789 1024.85 101.608C1023.74 101.608 1022.63 101.608 1021.52 101.608C1020.41 101.523 1019.26 101.48 1018.06 101.48C1015.42 101.48 1013.03 101.523 1010.9 101.608C1008.76 101.693 1006.54 101.949 1004.24 102.376C1003.9 103.144 1003.51 104.083 1003.09 105.192C1002.66 106.301 1002.45 107.709 1002.45 109.416C1002.45 110.867 1002.7 112.445 1003.22 114.152C1003.73 115.773 1004.28 116.925 1004.88 117.608ZM1071.58 130.92L1066.07 79.208L1054.3 80.872L1053.53 67.688L1064.79 67.176L1062.87 49.256L1094.75 45.032L1092.19 65.768L1104.86 65.128L1104.47 73.704L1090.91 75.624L1084.25 129.768L1071.58 130.92ZM1132.21 131.944C1131.7 131.944 1130.84 131.816 1129.65 131.56C1128.45 131.389 1127.6 131.176 1127.09 130.92C1125.12 128.531 1123.46 125.331 1122.1 121.32C1120.73 117.224 1119.62 112.744 1118.77 107.88C1117.91 102.931 1117.27 97.896 1116.85 92.776C1116.42 87.656 1116.12 82.792 1115.95 78.184C1115.78 73.4907 1115.7 69.4373 1115.7 66.024L1141.3 64.104C1140.61 70.9307 1140.06 76.9467 1139.63 82.152C1139.2 87.3573 1138.99 92.3493 1138.99 97.128C1138.99 100.968 1139.12 104.851 1139.38 108.776C1139.72 112.616 1140.23 116.883 1140.91 121.576C1144.67 120.723 1147.78 119.101 1150.26 116.712C1152.82 114.237 1154.86 111.293 1156.4 107.88C1158.02 104.381 1159.17 100.712 1159.86 96.872C1160.54 93.032 1160.88 89.2773 1160.88 85.608C1160.88 84.9253 1160.84 84.1147 1160.75 83.176C1160.75 82.152 1160.62 80.488 1160.37 78.184C1160.2 75.7947 1159.86 72.2533 1159.34 67.56L1186.74 63.336L1178.54 129.768L1165.87 130.92L1163.31 106.6H1162.42C1159 115.645 1154.78 122.131 1149.74 126.056C1144.71 129.981 1138.86 131.944 1132.21 131.944ZM1210.6 130.92L1204.07 67.432L1231.46 63.208L1228.65 85.736H1229.8C1233.13 78.4827 1236.97 72.7227 1241.32 68.456C1245.67 64.1893 1250.24 62.056 1255.01 62.056C1256.64 62.056 1258.21 62.312 1259.75 62.824C1261.71 65.2133 1263.38 68.4987 1264.74 72.68C1266.11 76.776 1267.22 81.3413 1268.07 86.376C1268.92 91.4107 1269.56 96.5733 1269.99 101.864C1270.42 107.069 1270.72 112.061 1270.89 116.84C1271.06 121.533 1271.14 125.587 1271.14 129L1248.1 130.92C1248.1 122.643 1248.02 115.475 1247.85 109.416C1247.68 103.357 1247.42 97.8107 1247.08 92.776C1246.82 87.656 1246.44 82.4933 1245.93 77.288C1244.3 77.8853 1242.43 78.9947 1240.29 80.616C1238.25 82.2373 1236.16 84.8827 1234.02 88.552C1231.89 92.2213 1229.88 97.384 1228.01 104.04C1226.13 110.611 1224.55 119.187 1223.27 129.768L1210.6 130.92ZM1314.3 132.072C1308.24 132.072 1303.08 131.347 1298.81 129.896C1294.63 128.531 1291.22 126.781 1288.57 124.648C1287.89 121.235 1287.38 117.949 1287.03 114.792C1286.78 111.549 1286.65 108.435 1286.65 105.448C1286.65 99.4747 1287.5 93.928 1289.21 88.808C1291 83.688 1293.18 79.1653 1295.74 75.24C1298.38 71.2293 1301.07 67.944 1303.8 65.384C1306.53 62.7387 1308.84 60.9467 1310.71 60.008C1314.55 61.9707 1318.35 64.36 1322.11 67.176C1325.86 69.992 1329.27 73.2773 1332.35 77.032C1335.5 80.7867 1338.02 85.0107 1339.9 89.704C1341.78 94.3973 1342.71 99.6453 1342.71 105.448C1342.71 111.336 1341.9 116.243 1340.28 120.168C1338.66 124.093 1335.8 127.037 1331.71 129C1327.61 131.048 1321.81 132.072 1314.3 132.072ZM1307.39 120.936C1310.63 120.936 1313.87 120.723 1317.11 120.296C1320.44 119.784 1323.34 119.101 1325.82 118.248C1326.5 115.517 1327.01 112.787 1327.35 110.056C1327.7 107.325 1327.87 104.637 1327.87 101.992C1327.87 93.8853 1326.16 86.4613 1322.75 79.72C1317.97 82.1947 1313.74 85.6507 1310.07 90.088C1306.4 94.44 1303.5 99.2613 1301.37 104.552C1299.32 109.757 1298.3 114.963 1298.3 120.168C1301.03 120.68 1304.06 120.936 1307.39 120.936ZM1405.8 103.4C1401.45 103.4 1398.38 102.291 1396.59 100.072C1394.8 97.8533 1393.9 95.208 1393.9 92.136C1393.9 89.064 1394.8 86.4187 1396.59 84.2C1398.38 81.9813 1401.45 80.872 1405.8 80.872C1410.16 80.872 1413.23 81.9813 1415.02 84.2C1416.81 86.4187 1417.71 89.064 1417.71 92.136C1417.71 95.208 1416.81 97.8533 1415.02 100.072C1413.23 102.291 1410.16 103.4 1405.8 103.4Z" fill="#424651"/>
</svg>
