<svg width="843" height="171" viewBox="0 0 843 171" fill="none" xmlns="http://www.w3.org/2000/svg">
<path d="M18.304 103.4C13.952 103.4 10.88 102.291 9.088 100.072C7.296 97.8533 6.4 95.208 6.4 92.136C6.4 89.064 7.296 86.4187 9.088 84.2C10.88 81.9813 13.952 80.872 18.304 80.872C22.656 80.872 25.728 81.9813 27.52 84.2C29.312 86.4187 30.208 89.064 30.208 92.136C30.208 95.208 29.312 97.8533 27.52 100.072C25.728 102.291 22.656 103.4 18.304 103.4ZM89.848 130.92L83.32 67.432L110.712 63.208L108.28 83.176H109.176C112.163 76.6907 115.576 71.5707 119.416 67.816C123.341 63.976 127.437 62.056 131.704 62.056C133.325 62.056 134.904 62.312 136.44 62.824C138.317 65.128 139.896 68.2427 141.176 72.168C142.541 76.0933 143.651 80.4027 144.504 85.096H145.528C148.515 78.0133 152.013 72.424 156.024 68.328C160.12 64.1467 164.387 62.056 168.824 62.056C170.445 62.056 172.024 62.312 173.56 62.824C175.523 65.2133 177.187 68.4987 178.552 72.68C179.917 76.8613 181.027 81.512 181.88 86.632C182.733 91.752 183.373 97 183.8 102.376C184.227 107.667 184.525 112.701 184.696 117.48C184.867 122.259 184.952 126.355 184.952 129.768L161.912 130.92C161.912 122.643 161.827 115.475 161.656 109.416C161.571 103.357 161.357 97.8107 161.016 92.776C160.76 87.656 160.419 82.4933 159.992 77.288C158.456 77.8853 156.749 78.9947 154.872 80.616C153.08 82.2373 151.203 84.8827 149.24 88.552C147.363 92.2213 145.571 97.384 143.864 104.04C142.243 110.611 140.835 119.187 139.64 129.768L124.792 130.92C124.792 122.643 124.707 115.475 124.536 109.416C124.451 103.357 124.237 97.8107 123.896 92.776C123.64 87.656 123.299 82.4933 122.872 77.288C121.507 77.8853 119.885 78.9947 118.008 80.616C116.216 82.2373 114.381 84.6693 112.504 87.912C110.712 91.0693 109.005 95.2933 107.384 100.584C105.848 105.875 104.611 112.488 103.672 120.424L102.52 129.768L89.848 130.92ZM211.28 131.944C210.768 131.944 210.213 131.944 209.616 131.944C209.104 131.944 208.592 131.901 208.08 131.816C205.179 129.853 202.832 126.952 201.04 123.112C199.333 119.187 198.48 115.133 198.48 110.952C198.48 107.453 199.291 104.552 200.912 102.248C202.533 99.944 205.435 98.2373 209.616 97.128C213.883 95.9333 219.856 95.336 227.536 95.336C229.413 95.336 231.419 95.4213 233.552 95.592C235.685 95.6773 237.947 95.8907 240.336 96.232L240.08 93.416C239.739 89.9173 238.075 87.1867 235.088 85.224C232.187 83.2613 228.731 82.28 224.72 82.28C222.501 82.28 220.155 82.6213 217.68 83.304C215.291 83.9867 212.901 85.0533 210.512 86.504L204.88 67.944C207.696 66.7493 211.28 65.7253 215.632 64.872C220.069 63.9333 224.635 63.464 229.328 63.464C235.557 63.464 240.976 64.36 245.584 66.152C250.277 67.944 253.904 70.76 256.464 74.6C259.109 78.3547 260.432 83.3467 260.432 89.576C260.432 90.344 260.389 91.24 260.304 92.264C260.304 93.288 260.261 94.0133 260.176 94.44L256.592 129.768L243.92 130.92L242 112.36H240.976C238.16 118.333 234.192 123.112 229.072 126.696C224.037 130.195 218.107 131.944 211.28 131.944ZM220.88 117.608C222.757 117.267 224.976 116.669 227.536 115.816C230.181 114.877 232.699 113.341 235.088 111.208C237.563 108.989 239.483 105.789 240.848 101.608C239.739 101.608 238.629 101.608 237.52 101.608C236.411 101.523 235.259 101.48 234.064 101.48C231.419 101.48 229.029 101.523 226.896 101.608C224.763 101.693 222.544 101.949 220.24 102.376C219.899 103.144 219.515 104.083 219.088 105.192C218.661 106.301 218.448 107.709 218.448 109.416C218.448 110.867 218.704 112.445 219.216 114.152C219.728 115.773 220.283 116.925 220.88 117.608ZM289.626 56.808C286.383 56.808 283.567 55.656 281.178 53.352C278.874 50.9627 277.722 48.1467 277.722 44.904C277.722 41.6613 278.874 38.888 281.178 36.584C283.567 34.1947 286.383 33 289.626 33C292.869 33 295.642 34.1947 297.946 36.584C300.335 38.888 301.53 41.6613 301.53 44.904C301.53 48.1467 300.335 50.9627 297.946 53.352C295.642 55.656 292.869 56.808 289.626 56.808ZM283.738 130.92L277.21 67.56L304.602 63.336L296.41 129.768L283.738 130.92ZM338.332 131.944C337.82 131.944 336.967 131.816 335.772 131.56C334.577 131.389 333.724 131.176 333.212 130.92C331.249 128.531 329.585 125.331 328.22 121.32C326.855 117.224 325.745 112.744 324.892 107.88C324.039 102.931 323.399 97.896 322.972 92.776C322.545 87.656 322.247 82.792 322.076 78.184C321.905 73.4907 321.82 69.4373 321.82 66.024L347.42 64.104C346.737 70.9307 346.183 76.9467 345.756 82.152C345.329 87.3573 345.116 92.3493 345.116 97.128C345.116 100.968 345.244 104.851 345.5 108.776C345.841 112.616 346.353 116.883 347.036 121.576C350.791 120.723 353.905 119.101 356.38 116.712C358.94 114.237 360.988 111.293 362.524 107.88C364.145 104.381 365.297 100.712 365.98 96.872C366.663 93.032 367.004 89.2773 367.004 85.608C367.004 84.9253 366.961 84.1147 366.876 83.176C366.876 82.152 366.748 80.488 366.492 78.184C366.321 75.7947 365.98 72.2533 365.468 67.56L392.86 63.336L384.668 129.768L371.996 130.92L369.436 106.6H368.54C365.127 115.645 360.903 122.131 355.868 126.056C350.833 129.981 344.988 131.944 338.332 131.944ZM458.554 103.4C454.202 103.4 451.13 102.291 449.338 100.072C447.546 97.8533 446.65 95.208 446.65 92.136C446.65 89.064 447.546 86.4187 449.338 84.2C451.13 81.9813 454.202 80.872 458.554 80.872C462.906 80.872 465.978 81.9813 467.77 84.2C469.562 86.4187 470.458 89.064 470.458 92.136C470.458 95.208 469.562 97.8533 467.77 100.072C465.978 102.291 462.906 103.4 458.554 103.4ZM530.098 130.92L523.57 67.432L550.962 63.208L548.53 83.176H549.426C552.413 76.6907 555.826 71.5707 559.666 67.816C563.591 63.976 567.687 62.056 571.954 62.056C573.575 62.056 575.154 62.312 576.69 62.824C578.567 65.128 580.146 68.2427 581.426 72.168C582.791 76.0933 583.901 80.4027 584.754 85.096H585.778C588.765 78.0133 592.263 72.424 596.274 68.328C600.37 64.1467 604.637 62.056 609.074 62.056C610.695 62.056 612.274 62.312 613.81 62.824C615.773 65.2133 617.437 68.4987 618.802 72.68C620.167 76.8613 621.277 81.512 622.13 86.632C622.983 91.752 623.623 97 624.05 102.376C624.477 107.667 624.775 112.701 624.946 117.48C625.117 122.259 625.202 126.355 625.202 129.768L602.162 130.92C602.162 122.643 602.077 115.475 601.906 109.416C601.821 103.357 601.607 97.8107 601.266 92.776C601.01 87.656 600.669 82.4933 600.242 77.288C598.706 77.8853 596.999 78.9947 595.122 80.616C593.33 82.2373 591.453 84.8827 589.49 88.552C587.613 92.2213 585.821 97.384 584.114 104.04C582.493 110.611 581.085 119.187 579.89 129.768L565.042 130.92C565.042 122.643 564.957 115.475 564.786 109.416C564.701 103.357 564.487 97.8107 564.146 92.776C563.89 87.656 563.549 82.4933 563.122 77.288C561.757 77.8853 560.135 78.9947 558.258 80.616C556.466 82.2373 554.631 84.6693 552.754 87.912C550.962 91.0693 549.255 95.2933 547.634 100.584C546.098 105.875 544.861 112.488 543.922 120.424L542.77 129.768L530.098 130.92ZM651.53 131.944C651.018 131.944 650.463 131.944 649.866 131.944C649.354 131.944 648.842 131.901 648.33 131.816C645.429 129.853 643.082 126.952 641.29 123.112C639.583 119.187 638.73 115.133 638.73 110.952C638.73 107.453 639.541 104.552 641.162 102.248C642.783 99.944 645.685 98.2373 649.866 97.128C654.133 95.9333 660.106 95.336 667.786 95.336C669.663 95.336 671.669 95.4213 673.802 95.592C675.935 95.6773 678.197 95.8907 680.586 96.232L680.33 93.416C679.989 89.9173 678.325 87.1867 675.338 85.224C672.437 83.2613 668.981 82.28 664.97 82.28C662.751 82.28 660.405 82.6213 657.93 83.304C655.541 83.9867 653.151 85.0533 650.762 86.504L645.13 67.944C647.946 66.7493 651.53 65.7253 655.882 64.872C660.319 63.9333 664.885 63.464 669.578 63.464C675.807 63.464 681.226 64.36 685.834 66.152C690.527 67.944 694.154 70.76 696.714 74.6C699.359 78.3547 700.682 83.3467 700.682 89.576C700.682 90.344 700.639 91.24 700.554 92.264C700.554 93.288 700.511 94.0133 700.426 94.44L696.842 129.768L684.17 130.92L682.25 112.36H681.226C678.41 118.333 674.442 123.112 669.322 126.696C664.287 130.195 658.357 131.944 651.53 131.944ZM661.13 117.608C663.007 117.267 665.226 116.669 667.786 115.816C670.431 114.877 672.949 113.341 675.338 111.208C677.813 108.989 679.733 105.789 681.098 101.608C679.989 101.608 678.879 101.608 677.77 101.608C676.661 101.523 675.509 101.48 674.314 101.48C671.669 101.48 669.279 101.523 667.146 101.608C665.013 101.693 662.794 101.949 660.49 102.376C660.149 103.144 659.765 104.083 659.338 105.192C658.911 106.301 658.698 107.709 658.698 109.416C658.698 110.867 658.954 112.445 659.466 114.152C659.978 115.773 660.533 116.925 661.13 117.608ZM729.876 56.808C726.633 56.808 723.817 55.656 721.428 53.352C719.124 50.9627 717.972 48.1467 717.972 44.904C717.972 41.6613 719.124 38.888 721.428 36.584C723.817 34.1947 726.633 33 729.876 33C733.119 33 735.892 34.1947 738.196 36.584C740.585 38.888 741.78 41.6613 741.78 44.904C741.78 48.1467 740.585 50.9627 738.196 53.352C735.892 55.656 733.119 56.808 729.876 56.808ZM723.988 130.92L717.46 67.56L744.852 63.336L736.66 129.768L723.988 130.92ZM778.582 131.944C778.07 131.944 777.217 131.816 776.022 131.56C774.827 131.389 773.974 131.176 773.462 130.92C771.499 128.531 769.835 125.331 768.47 121.32C767.105 117.224 765.995 112.744 765.142 107.88C764.289 102.931 763.649 97.896 763.222 92.776C762.795 87.656 762.497 82.792 762.326 78.184C762.155 73.4907 762.07 69.4373 762.07 66.024L787.67 64.104C786.987 70.9307 786.433 76.9467 786.006 82.152C785.579 87.3573 785.366 92.3493 785.366 97.128C785.366 100.968 785.494 104.851 785.75 108.776C786.091 112.616 786.603 116.883 787.286 121.576C791.041 120.723 794.155 119.101 796.63 116.712C799.19 114.237 801.238 111.293 802.774 107.88C804.395 104.381 805.547 100.712 806.23 96.872C806.913 93.032 807.254 89.2773 807.254 85.608C807.254 84.9253 807.211 84.1147 807.126 83.176C807.126 82.152 806.998 80.488 806.742 78.184C806.571 75.7947 806.23 72.2533 805.718 67.56L833.11 63.336L824.918 129.768L812.246 130.92L809.686 106.6H808.79C805.377 115.645 801.153 122.131 796.118 126.056C791.083 129.981 785.238 131.944 778.582 131.944Z" fill="#424651"/>
</svg>
