<?xml version="1.0" encoding="utf-8"?>
<!-- Generator: Adobe Illustrator 27.8.0, SVG Export Plug-In . SVG Version: 6.00 Build 0)  -->
<svg version="1.1" id="Capa_2_00000013166422727397206690000012229051687403137715_"
	 xmlns="http://www.w3.org/2000/svg" xmlns:xlink="http://www.w3.org/1999/xlink" x="0px" y="0px" viewBox="0 0 261.6 255.1"
	 style="enable-background:new 0 0 261.6 255.1;" xml:space="preserve">
<g id="Capa_1-2">
	<g>
		<path d="M98.5,84.8c8.3-5.6,16.1-11.3,24.4-16.1c12.8-7.5,26.6-12.4,41.8-11.1c24.6,2.2,39.8,16.9,48.8,38.7
			c2,4.9,4.6,5.2,8.7,4.4c12.4-2.5,20.5-13.1,19.5-25.7c-0.9-12-10.9-21.3-23.4-21.6c-10.7-0.2-21.3,0.1-32-0.1
			c-22.8-0.3-41.8-19.8-41.6-42.6c0-6.1,3.5-10.2,8.9-10.6c5.7-0.4,9.9,3.3,10.7,9.4c2.4,17.4,9.9,24,27.5,24.1
			c10.2,0.1,20.4-0.3,30.5,0.3c21.7,1.4,38.9,20.1,39.4,42.3c0.5,21.8-15.8,41.1-37.1,43.9c-1.8,0.2-3.6,0.6-4.4,0.7
			c-2.9,14.8-6.5,28.8-8.4,43c-2.1,16.1-2.8,32.4-3.8,48.7c-0.6,9-0.6,18-1.2,26.9c-0.6,8.5-7.8,14.8-15.7,14.1
			c-8.8-0.8-14.4-7.9-13.6-17c1.5-17.8,2.4-35.6-1.8-53.2c-3.3-13.4-10.1-24.3-24.4-28.4c-17.6-5-32.9,1-42.4,16.8
			c-6.3,10.5-9.4,21.9-9.8,34.1c-0.5,14.1-3.3,27.7-9.7,40.4c-3,6.1-9.1,9.3-15.1,8.4c-6.7-1-12.1-6-12.8-12.8
			c-0.3-3.1,0.7-6.6,1.9-9.6c4.4-10.5,6.8-22.4,5.5-30.2H62c-2.4,10.4-4.7,20.8-7.3,31c-0.9,3.3-2.5,6.5-4.2,9.6
			c-3.7,6.6-11.7,9.2-18.5,6.3c-7.1-3.1-11.4-11.1-8.1-18.1c9.1-19.4,9.1-39.2,3.9-59.6c5.4,2.4,10.4,4.6,15.4,6.9
			c-7.2,6.4-8.4,12.8-3.3,18.2c4.1,4.5,11.2,4.8,15.8,0.8c5.5-4.8,5.2-11.1-1.5-18.7c11.4-1.2,20.7-6.1,28.1-14.8
			c-12.1,7-25.4,5.4-38.4,5.3c-30,0.1-50.9-29-41.7-57.5c0.9-2.8,1.2-5.8,1.4-8.8C4.4,91.3,5,80,5.7,68.8c0-0.5,0.1-1,0.2-1.5
			c2.4-10,6.3-11.8,14.6-5.9c7.1,5.1,13.6,11.1,20.2,17c4.1,3.6,16,3.5,20.1-0.1c6.9-6.2,13.8-12.6,21.3-18.1
			c6.7-4.9,10.3-3.3,12.8,4.8c1.4,4.6,2,9.4,2.9,14.1C98.1,81.1,98.3,83,98.5,84.8L98.5,84.8z M81.9,126.7c0.1-7.9-6.3-14.4-14-14.4
			c-7.6,0-14,6.3-14.2,13.9c-0.2,7.9,6,14.4,13.9,14.7C75.3,141,81.8,134.6,81.9,126.7L81.9,126.7z M37.5,126.9
			c0.3-7.6-6.3-14.4-14-14.7c-7.4-0.2-14,6.1-14.4,13.7c-0.4,7.7,5.9,14.5,13.7,14.9C30.3,141.2,37.3,134.6,37.5,126.9z M52,144.8
			c-0.3-0.4-0.6-0.8-0.9-1.2H39c-0.2,0.4-0.5,0.8-0.7,1.2c2.3,2.2,4.6,6,6.9,6C47.4,150.8,49.7,147,52,144.8L52,144.8z"/>
		<path d="M48.9,177.4c0.3,2.4,0.5,3.6,0.7,4.7c0.7,3.1,1.5,6.2,2,9.3c0.2,1.4-0.1,3.5-1,4.4c-0.9,0.8-3.3,1-4.3,0.4
			c-1-0.7-1.8-2.8-1.7-4.1c0.5-3.9,1.5-7.9,2.5-11.7C47.2,179.6,47.8,179.1,48.9,177.4L48.9,177.4z"/>
		<path d="M58.5,126.2c0.2-5.2,4.6-9.4,9.7-9.1c4.9,0.2,9,4.6,9,9.5c0,5-4.7,9.5-9.6,9.4C62.4,135.8,58.4,131.5,58.5,126.2
			L58.5,126.2z"/>
		<path d="M32.6,126.4c0,5.1-4.3,9.6-9.5,9.5c-5,0-9.5-4.6-9.4-9.7c0.1-4.9,4.3-9.1,9.3-9.2C28.2,117,32.6,121.2,32.6,126.4
			L32.6,126.4z"/>
	</g>
</g>
</svg>
